<svg width="25" height="25" viewBox="0 0 25 26" fill="none" xmlns="http://www.w3.org/2000/svg">
<g clipPath="url(#clip0_535_186)">
<path d="M22.9385 8.71618C22.4665 8.71511 21.9946 8.71511 21.484 8.71511V8.45231C21.484 7.27241 21.484 6.0925 21.483 4.9126C21.483 4.3323 21.1751 4.02982 20.5916 4.02875C20.1358 4.02767 19.6799 4.02767 19.2241 4.0266C19.2091 4.0266 19.193 4.02124 19.1404 4.01051V3.54177C19.1404 3.0859 19.1415 2.6311 19.1394 2.17523C19.1383 1.53915 18.8691 1.16051 18.2695 0.943836C18.248 0.936328 18.2309 0.91702 18.2126 0.903076H6.78737C6.3283 1.07255 5.97863 1.34929 5.88317 1.8588C5.85529 2.00897 5.86065 2.16557 5.86065 2.32003C5.8585 2.87888 5.85958 3.43879 5.85958 4.02767C5.38227 4.02767 4.92213 4.02767 4.46199 4.02875C3.80234 4.02875 3.51596 4.31621 3.51596 4.98018V8.71511C3.08156 8.71511 2.66218 8.70653 2.24279 8.7194C1.96821 8.72691 1.68397 8.72691 1.42333 8.79985C0.699331 9.00257 0.250987 9.49492 0.0525571 10.2179C0.0386134 10.2715 0.0182341 10.323 0 10.3756V19.5552C0.108332 19.8158 0.181268 20.099 0.331431 20.3318C0.711129 20.9207 1.27639 21.2103 1.97679 21.2135C3.17273 21.2199 4.36974 21.2156 5.56569 21.2156H5.85958V21.4913C5.85958 22.5414 5.8585 23.5915 5.85958 24.6406C5.86065 25.4172 6.34761 25.902 7.12738 25.902C10.7066 25.9031 14.2869 25.9031 17.8673 25.9031C18.661 25.902 19.1394 25.4204 19.1394 24.6213C19.1415 23.4993 19.1404 22.3762 19.1404 21.2156H19.4043C20.5841 21.2156 21.764 21.2167 22.9438 21.2156C24.1645 21.2135 24.9979 20.3811 24.9989 19.1605C25 16.362 25 13.5624 24.9989 10.7638C24.9979 9.54533 24.1623 8.71832 22.9385 8.71618ZM6.64042 2.24388C6.64042 1.79658 6.75412 1.68503 7.20461 1.68503C10.7345 1.68396 14.2644 1.68396 17.7943 1.68503C18.2448 1.68503 18.3585 1.79766 18.3585 2.2428V8.69902H6.64042V2.24388ZM18.3585 24.5612C18.3585 25.0074 18.2448 25.1211 17.7965 25.1211C14.2666 25.1222 10.7367 25.1222 7.20675 25.1211C6.75519 25.1211 6.64042 25.0096 6.64042 24.5644V18.1082H18.3585V24.5612ZM19.1479 12.6206C18.499 12.6249 17.967 12.0928 17.9692 11.445C17.9713 10.8078 18.4947 10.2822 19.1329 10.279C19.7818 10.2758 20.3128 10.8057 20.3106 11.4546C20.3085 12.0928 19.7851 12.6174 19.1479 12.6206ZM22.2606 12.6206C21.6128 12.6184 21.0861 12.0821 21.0936 11.4332C21.1011 10.7971 21.631 10.2769 22.2692 10.279C22.917 10.2812 23.4437 10.8175 23.4362 11.4664C23.4287 12.1025 22.8988 12.6227 22.2606 12.6206Z" fill="white"/>
<path d="M12.7203 19.2624C14.0224 19.2624 15.3246 19.2624 16.6256 19.2624C16.6986 19.2624 16.7736 19.2549 16.8444 19.2689C17.0547 19.3075 17.1812 19.4373 17.1812 19.6529C17.1812 19.8685 17.0536 19.9983 16.8434 20.0369C16.7726 20.0498 16.6975 20.0433 16.6246 20.0433C14.0042 20.0433 11.3839 20.0433 8.76459 20.0433C8.69165 20.0433 8.61657 20.0508 8.54578 20.0369C8.33555 19.9972 8.20898 19.8685 8.20898 19.6518C8.20898 19.4362 8.33662 19.3064 8.54685 19.2678C8.61764 19.2549 8.69272 19.2614 8.76566 19.2614C10.0839 19.2624 11.4021 19.2624 12.7203 19.2624Z" fill="white"/>
<path d="M12.712 21.2157C14.0055 21.2157 15.299 21.2157 16.5937 21.2157C16.6591 21.2157 16.7245 21.2125 16.7889 21.2168C17.0227 21.2329 17.1804 21.3874 17.1847 21.5987C17.189 21.8196 17.0248 21.9805 16.7782 21.9956C16.7374 21.9977 16.6966 21.9966 16.6559 21.9966C14.0109 21.9966 11.3669 21.9966 8.7219 21.9966C8.65648 21.9966 8.58998 22.002 8.52776 21.988C8.33148 21.943 8.21028 21.8175 8.20706 21.6126C8.20491 21.3959 8.32826 21.264 8.53742 21.2233C8.61572 21.2082 8.69938 21.2157 8.7809 21.2157C10.0916 21.2157 11.4023 21.2157 12.712 21.2157Z" fill="white"/>
<path d="M12.671 23.9499C11.3688 23.9499 10.0667 23.9499 8.76566 23.9499C8.69272 23.9499 8.61764 23.9574 8.54685 23.9435C8.33662 23.9038 8.20898 23.7751 8.20898 23.5595C8.20898 23.3439 8.33555 23.2141 8.54578 23.1754C8.61657 23.1626 8.69165 23.169 8.76459 23.169C11.3849 23.169 14.0053 23.169 16.6246 23.169C16.6975 23.169 16.7726 23.1615 16.8434 23.1754C17.0536 23.2141 17.1812 23.3439 17.1812 23.5595C17.1812 23.7751 17.0536 23.9048 16.8444 23.9445C16.7736 23.9585 16.6986 23.951 16.6256 23.951C15.3074 23.9499 13.9892 23.9499 12.671 23.9499Z" fill="white"/>
</g>
<defs>
<clipPath id="clip0_535_186">
<rect width="25" height="25" fill="white" transform="translate(0 0.903076)"/>
</clipPath>
</defs>
</svg>
