<svg width="300" height="52" viewBox="0 0 300 52" fill="none" xmlns="http://www.w3.org/2000/svg">
<g filter="url(#filter0_d_147_735)">
<path d="M20.4138 6.704C24.0618 6.704 27.5178 8.112 30.1418 10.736C32.7018 13.296 34.1738 16.752 34.1738 20.464C34.1738 24.112 32.7018 27.568 30.1418 30.192C27.5178 32.752 24.0618 34.224 20.4138 34.224H11.7738V45.936H6.65375V30.704L20.3498 14.192H20.4138C22.3338 14.192 23.9978 15.024 25.1498 16.368L14.6538 29.104H20.4138C25.1498 29.104 29.0538 25.2 29.0538 20.464C29.0538 15.664 25.1498 11.824 20.4138 11.824H11.7738V19.376L6.65375 25.52V6.704H20.4138ZM37.6098 33.712H50.3458L52.3298 38.832H41.1298L38.3778 45.936H32.8738L37.6098 33.712ZM38.5058 31.28L47.9778 6.704L63.0818 45.936H57.6418L47.9778 20.912L44.0098 31.28H38.5058ZM89.7518 30.192C87.2558 32.624 84.0558 34.032 80.5998 34.16L94.4238 45.936H86.4878L72.0238 33.584V45.936H66.9038V30.704L78.4878 16.752H85.1438L74.9038 29.104H80.0238C84.7598 29.104 88.6638 25.2 88.6638 20.464C88.6638 15.664 84.7598 11.824 80.0238 11.824H72.0238V20.464L66.9038 26.608V6.704H80.0238C83.6718 6.704 87.1278 8.112 89.7518 10.736C92.3758 13.296 93.7838 16.752 93.7838 20.464C93.7838 24.112 92.3758 27.568 89.7518 30.192ZM101.735 33.712H114.471L116.455 38.832H105.255L102.503 45.936H96.9988L101.735 33.712ZM102.631 31.28L112.103 6.704L127.207 45.936H121.767L112.103 20.912L108.135 31.28H102.631ZM133.86 39.28V11.824H130.404V6.704H142.436V11.824H138.98V39.28H133.86ZM147.108 33.008H152.612L157.476 45.936H130.404V40.816H150.116L147.108 33.008ZM164.797 39.28V11.824H161.341V6.704H173.373V11.824H169.917V39.28H164.797ZM178.045 33.008H183.549L188.413 45.936H161.341V40.816H181.053L178.045 33.008ZM193.254 28.848V6.704H217.254L211.622 17.776H205.926L208.934 11.824H198.374V23.728H213.094V28.848H193.254ZM204.902 31.216L199.974 40.816H216.934V45.936H191.654L199.078 31.216H204.902ZM224.61 39.28V11.824H221.154V6.704H233.186V11.824H229.73V39.28H224.61ZM237.858 33.008H243.362L248.226 45.936H221.154V40.816H240.866L237.858 33.008ZM287.496 6.704H293.32L282.056 27.248L292.232 45.936H286.408L279.112 32.624L271.816 45.936H265.992L287.496 6.704ZM277.768 19.504L274.824 24.816L264.904 6.704H270.792L277.768 19.504Z" fill="#85E6FF"/>
</g>
<defs>
<filter id="filter0_d_147_735" x="0.65332" y="0.703995" width="298.666" height="51.232" filterUnits="userSpaceOnUse" color-interpolation-filters="sRGB">
<feFlood flood-opacity="0" result="BackgroundImageFix"/>
<feColorMatrix in="SourceAlpha" type="matrix" values="0 0 0 0 0 0 0 0 0 0 0 0 0 0 0 0 0 0 127 0" result="hardAlpha"/>
<feOffset/>
<feGaussianBlur stdDeviation="3"/>
<feComposite in2="hardAlpha" operator="out"/>
<feColorMatrix type="matrix" values="0 0 0 0 0.521569 0 0 0 0 0.901961 0 0 0 0 1 0 0 0 0.8 0"/>
<feBlend mode="normal" in2="BackgroundImageFix" result="effect1_dropShadow_147_735"/>
<feBlend mode="normal" in="SourceGraphic" in2="effect1_dropShadow_147_735" result="shape"/>
</filter>
</defs>
</svg>
