<svg width="25" height="25" viewBox="0 0 25 37" fill="none" xmlns="http://www.w3.org/2000/svg">
<path d="M19.7836 36.7654C17.8863 36.7467 15.8266 36.7367 13.303 36.7367C11.826 36.7367 10.3507 36.7396 8.87366 36.7424C7.395 36.7453 5.91801 36.7482 4.44102 36.7482C1.70139 36.7496 0 35.447 0 33.351V4.16683C0 2.34632 1.03825 1.24884 3.17168 0.811288C3.27215 0.791204 3.41282 0.765381 3.56018 0.765381H20.5137C20.7063 0.765381 20.8956 0.788335 21.0798 0.831373L21.1652 0.851457C21.3946 0.905972 21.6307 0.960487 21.8685 1.05087C23.4409 1.64193 24.2732 2.6605 24.2749 3.99468C24.2816 6.96431 24.2799 9.93538 24.2782 12.905V16.206C24.2782 17.7698 24.2766 19.3321 24.2732 20.8958C24.2665 24.9657 24.2598 29.1734 24.3 33.3108C24.3084 34.2046 23.9148 35.0395 23.1914 35.6636C22.3692 36.3737 21.1836 36.7654 19.8556 36.7654H19.7836ZM4.31207 3.00193C2.94393 3.00337 2.78485 3.62742 2.78485 4.09654V33.4141C2.78485 33.9263 2.96235 34.5131 4.34891 34.5131H19.9226C21.3075 34.5131 21.4934 33.9435 21.4934 33.3854V12.9552C21.4934 9.99277 21.4934 7.02887 21.4934 4.06784C21.4934 3.80388 21.4934 3.00337 19.9745 3.00193H19.8841C19.73 3.00193 19.576 3.00337 19.4236 3.00337C19.2662 3.0048 19.1104 3.0048 18.953 3.0048C18.8023 3.0048 18.6499 3.00337 18.4992 3.00193C18.4507 3.11527 18.4038 3.29746 18.3971 3.44522C18.3652 4.26008 17.6385 4.80953 16.5902 4.8124C15.1232 4.81384 13.6546 4.81527 12.1877 4.81527C10.7207 4.81527 9.25212 4.81384 7.78518 4.8124C6.72181 4.81097 6.00843 4.26438 5.96824 3.42227C5.96155 3.29172 5.91298 3.11383 5.86275 3.00193C5.69864 3.00337 5.5295 3.0048 5.36204 3.0048C5.20631 3.0048 4.58838 3.00193 4.43432 3.00193H4.31207Z" fill="white"/>
<circle cx="12.1504" cy="30.0154" r="2.25" fill="white"/>
</svg>
